<svg width="320" height="320" viewBox="0 0 320 320" fill="none" xmlns="http://www.w3.org/2000/svg" role="img" aria-label="Mobile app QR placeholder">
  <rect width="320" height="320" rx="16" fill="#0B0F0B"/>
  <rect x="20" y="20" width="280" height="280" rx="12" fill="#0F1610" stroke="#1F2A1F" stroke-width="2"/>

  <g opacity="0.9">
    <rect x="44" y="44" width="72" height="72" rx="8" stroke="#94A3B8" stroke-width="8"/>
    <rect x="204" y="44" width="72" height="72" rx="8" stroke="#94A3B8" stroke-width="8"/>
    <rect x="44" y="204" width="72" height="72" rx="8" stroke="#94A3B8" stroke-width="8"/>
  </g>

  <g fill="#CBD5E1">
    <rect x="146" y="48" width="14" height="14" rx="2"/>
    <rect x="166" y="48" width="14" height="14" rx="2"/>
    <rect x="146" y="68" width="14" height="14" rx="2"/>
    <rect x="186" y="68" width="14" height="14" rx="2"/>
    <rect x="146" y="88" width="14" height="14" rx="2"/>

    <rect x="128" y="132" width="14" height="14" rx="2"/>
    <rect x="148" y="132" width="14" height="14" rx="2"/>
    <rect x="188" y="132" width="14" height="14" rx="2"/>
    <rect x="208" y="132" width="14" height="14" rx="2"/>
    <rect x="228" y="132" width="14" height="14" rx="2"/>

    <rect x="128" y="152" width="14" height="14" rx="2"/>
    <rect x="168" y="152" width="14" height="14" rx="2"/>
    <rect x="188" y="152" width="14" height="14" rx="2"/>
    <rect x="228" y="152" width="14" height="14" rx="2"/>

    <rect x="128" y="172" width="14" height="14" rx="2"/>
    <rect x="148" y="172" width="14" height="14" rx="2"/>
    <rect x="168" y="172" width="14" height="14" rx="2"/>
    <rect x="208" y="172" width="14" height="14" rx="2"/>
    <rect x="228" y="172" width="14" height="14" rx="2"/>

    <rect x="128" y="192" width="14" height="14" rx="2"/>
    <rect x="168" y="192" width="14" height="14" rx="2"/>
    <rect x="188" y="192" width="14" height="14" rx="2"/>
    <rect x="208" y="192" width="14" height="14" rx="2"/>

    <rect x="168" y="212" width="14" height="14" rx="2"/>
    <rect x="188" y="212" width="14" height="14" rx="2"/>
    <rect x="228" y="212" width="14" height="14" rx="2"/>
  </g>

  <text x="160" y="298" text-anchor="middle" fill="#64748B" font-size="14" font-family="monospace">QR PLACEHOLDER</text>
</svg>
